<svg width="166" height="166" viewBox="0 0 166 166" fill="none" xmlns="http://www.w3.org/2000/svg">
<mask id="mask0_12_259" style="mask-type:alpha" maskUnits="userSpaceOnUse" x="0" y="0" width="166" height="166">
<rect x="0.224854" y="0.796021" width="165.037" height="164.822" fill="url(#paint0_linear_12_259)"/>
</mask>
<g mask="url(#mask0_12_259)">
<path d="M148.275 92.8937C147.155 92.8937 146.138 93.1736 145.224 93.7335C144.34 94.264 143.662 95.1781 143.191 96.4747L133.538 128.318C134.193 128.33 134.856 128.385 135.522 128.485C143.711 129.727 149.345 137.372 148.104 145.562L148.04 145.943C146.646 153.799 139.327 159.191 131.412 158.196L131.028 158.144C124.157 157.102 119.087 151.553 118.365 144.957H44.6967C43.2192 151.561 36.8591 155.988 30.0659 154.959C22.9672 153.883 18.0849 147.257 19.1606 140.158C20.1158 133.855 25.4468 129.3 31.5991 129.11C31.6207 129.006 31.6412 128.898 31.6577 128.787C31.7755 127.962 31.8344 126.857 31.8344 125.472V107.7C31.8344 106.463 31.7755 105.431 31.6577 104.606C31.5398 103.78 31.3178 103.132 30.9936 102.66C30.6694 102.159 30.1983 101.821 29.5795 101.644C28.9901 101.437 28.1939 101.334 27.1918 101.334V99.5656H40.5873L50.8881 125.339H51.0649L61.2768 99.5656H74.186V99.6271H108.84V101.44C107.337 101.44 106.306 101.587 105.746 101.882C105.186 102.147 104.906 102.604 104.906 103.252C104.906 103.488 104.92 103.724 104.95 103.96C104.979 104.166 105.038 104.417 105.126 104.711C105.215 104.976 105.318 105.316 105.436 105.729C105.583 106.141 105.775 106.657 106.01 107.276L112.2 125.092L119.362 105.551C119.067 104.756 118.773 104.107 118.478 103.607C118.183 103.106 117.829 102.707 117.416 102.412C117.033 102.118 116.591 101.912 116.09 101.794C115.589 101.647 114.985 101.528 114.278 101.44V99.6271H129.883V101.44C128.646 101.44 127.732 101.602 127.143 101.926C126.554 102.221 126.258 102.81 126.258 103.694C126.258 104.137 126.317 104.653 126.435 105.242C126.582 105.832 126.774 106.509 127.01 107.276L130.448 124.738L138.548 99.5255C139.256 97.5508 139.492 96.1055 139.492 95.1329C139.492 94.2196 139.285 93.6013 138.637 93.3361C138.018 93.0413 137.045 92.8937 135.719 92.8937V91.1261H148.275V92.8937ZM134.922 132.441C128.917 131.531 123.311 135.662 122.401 141.667C121.491 147.672 125.622 153.279 131.627 154.189C137.633 155.098 143.239 150.967 144.149 144.962C145.058 138.957 140.927 133.351 134.922 132.441ZM33.3618 133.207C28.4474 132.463 23.8594 135.844 23.1147 140.758C22.3702 145.672 25.7512 150.259 30.6655 151.004C35.5798 151.749 40.1668 148.369 40.9116 143.454C41.6562 138.54 38.2761 133.952 33.3618 133.207ZM133.275 136.815C136.864 136.815 139.775 139.725 139.775 143.315C139.775 146.904 136.865 149.814 133.275 149.815C129.685 149.815 126.775 146.904 126.775 143.315C126.775 139.725 129.685 136.815 133.275 136.815ZM32.0131 137.106C34.7744 137.106 37.0129 139.344 37.0131 142.106C37.0131 144.867 34.7745 147.106 32.0131 147.106C29.2519 147.105 27.0131 144.867 27.0131 142.106C27.0134 139.344 29.252 137.106 32.0131 137.106ZM85.4565 101.971C84.6902 101.971 84.2183 102.074 84.0414 102.28C83.8648 102.457 83.7758 102.9 83.7758 103.607V114.835C85.6619 114.835 87.1801 114.776 88.3295 114.658C89.479 114.54 90.3639 114.305 90.9828 113.951C91.6311 113.568 92.0877 113.023 92.353 112.316C92.6182 111.608 92.8247 110.65 92.9721 109.442H94.6078V122.395H92.9721C92.7953 121.216 92.5588 120.273 92.2641 119.566C91.9694 118.858 91.4983 118.327 90.85 117.974C90.2016 117.591 89.3167 117.355 88.1967 117.267C87.1063 117.149 85.6323 117.09 83.7758 117.09V126.197C83.7758 127.14 83.8946 127.936 84.1303 128.584C84.3955 129.232 84.8223 129.763 85.4116 130.176C86.001 130.559 86.7827 130.839 87.7553 131.016C88.7279 131.163 89.9218 131.236 91.3364 131.236C93.0162 131.236 94.4311 131.119 95.5805 130.883C96.759 130.647 97.7314 130.235 98.4975 129.646C99.2638 129.056 99.8834 128.274 100.355 127.302C100.826 126.3 101.224 125.047 101.548 123.544H103.317L102.61 133.668H72.6352V133.607H58.0502V131.838C59.1406 131.809 60.0103 131.72 60.6586 131.572C61.3362 131.396 61.8519 131.087 62.2055 130.645C62.5886 130.203 62.8396 129.583 62.9575 128.787C63.0753 127.962 63.1342 126.857 63.1342 125.472V104.782H62.9125L51.0209 134.049H47.7495L35.4594 104.782H35.2827V125.162C35.2827 126.636 35.3415 127.801 35.4594 128.655C35.5089 129.014 35.5812 129.339 35.6723 129.63C40.8355 131.137 44.5019 135.685 44.9653 140.957H118.463C119.326 135.536 122.998 131.25 127.767 129.362L120.909 110.768L112.156 134.11H108.487L99.1137 108.292C98.5538 106.789 98.0384 105.581 97.5668 104.667C97.1866 103.93 96.7852 103.339 96.3666 102.89C95.8066 102.608 95.1472 102.404 94.3862 102.28C93.3252 102.074 92.0135 101.971 90.4516 101.971H85.4565ZM73.1215 101.382C72.6156 101.431 72.1749 101.518 71.7993 101.644C71.2098 101.821 70.7524 102.159 70.4282 102.66C70.1041 103.161 69.883 103.854 69.7651 104.737C69.6767 105.592 69.6332 106.683 69.6332 108.009V125.162C69.6332 126.636 69.6921 127.801 69.81 128.655C69.9279 129.51 70.1634 130.173 70.517 130.645C70.8707 131.116 71.3717 131.425 72.02 131.572C72.5491 131.687 73.2042 131.766 73.9848 131.809C74.3733 131.765 74.7194 131.707 75.0229 131.635C75.6418 131.488 76.1137 131.237 76.4379 130.883C76.762 130.529 76.9832 130.028 77.101 129.38C77.2189 128.732 77.2778 127.892 77.2778 126.86V106.436C77.2778 105.404 77.2189 104.579 77.101 103.96C77.0126 103.312 76.8205 102.811 76.5258 102.457C76.2311 102.074 75.8036 101.823 75.2436 101.705C74.7131 101.558 74.0055 101.455 73.1215 101.396V101.382ZM88.8432 41.8077C88.8839 41.9596 88.9465 42.1131 89.0346 42.2648L104.837 69.463C104.953 69.6615 105.102 69.8402 105.274 69.9982L106.801 72.6173C108.185 74.977 109.367 76.8922 110.347 78.3615L91.6245 78.2228L81.5893 59.8741L71.3286 40.8878H70.8764L57.433 64.923C53.8935 70.5282 49.5254 79.1741 49.5248 81.3429C49.5248 82.9292 50.3536 83.9344 52.0102 84.3575C53.7424 84.7806 56.3037 84.9923 59.6928 84.9923V88.1652H28.7387V84.9923C30.5462 84.8337 32.0902 84.622 33.3705 84.3575C34.7261 84.0931 35.8935 83.7231 36.8725 83.2472C37.9267 82.7713 38.8304 82.1632 39.5834 81.423C40.3366 80.6297 41.0521 79.6771 41.7299 78.5665L70.6791 27.6329L71.3608 26.2921H79.8012L88.8432 41.8077ZM87.3549 80.8361C87.6724 81.4165 88.1872 81.8189 88.77 82.0099C89.0276 82.1338 89.3148 82.2068 89.6196 82.2091L131.656 82.5187L131.422 88.1652H69.4409V85.7736L80.1323 67.63L87.3549 80.8361ZM131.822 78.5206L123.669 78.4601C123.772 78.3358 123.874 78.21 123.971 78.0792C125.213 76.4848 126.173 74.3697 126.85 71.7355C127.527 69.1013 128.12 65.7393 128.628 61.6495H132.523L131.822 78.5206ZM129.729 10.4904L102.255 57.2999L94.2944 43.5997L112.032 13.506H90.6098C86.4325 13.506 83.2705 14.7887 81.1254 17.3536C80.0768 18.6415 79.1921 20.2877 78.4711 22.2921H73.394L80.3549 8.60071L129.729 8.09875V10.4904Z" fill="url(#paint1_linear_12_259)"/>
</g>
<defs>
<linearGradient id="paint0_linear_12_259" x1="82.7435" y1="0.796021" x2="82.7435" y2="165.618" gradientUnits="userSpaceOnUse">
<stop stop-color="#E64F25"/>
<stop offset="1" stop-color="#3217C6"/>
</linearGradient>
<linearGradient id="paint1_linear_12_259" x1="83.6437" y1="8.09875" x2="83.6437" y2="158.315" gradientUnits="userSpaceOnUse">
<stop stop-color="#E64F25"/>
<stop offset="1" stop-color="#3217C6"/>
</linearGradient>
</defs>
</svg>
