<?xml version="1.0" standalone="no"?>
<!DOCTYPE svg PUBLIC "-//W3C//DTD SVG 20010904//EN" "http://www.w3.org/TR/2001/REC-SVG-20010904/DTD/svg10.dtd">
<svg version="1.0" xmlns="http://www.w3.org/2000/svg" width="434.000000pt" height="487.000000pt" viewBox="0 0 434.000000 487.000000" preserveAspectRatio="xMidYMid meet">

<defs>
    <!-- Vibrant multi-color gradient -->
    <linearGradient id="multiGradient" x1="0%" y1="0%" x2="100%" y2="100%">
        <stop offset="0%" style="stop-color:#FF7139;stop-opacity:1" />
        <stop offset="25%" style="stop-color:#FF3D00;stop-opacity:1" />
        <stop offset="50%" style="stop-color:#E91E63;stop-opacity:1" />
        <stop offset="75%" style="stop-color:#9C27B0;stop-opacity:1" />
        <stop offset="100%" style="stop-color:#673AB7;stop-opacity:1" />
    </linearGradient>
    
    <!-- Glow effect -->
    <filter id="glow" x="-30%" y="-30%" width="160%" height="160%">
        <feGaussianBlur in="SourceAlpha" stdDeviation="4" result="blur"/>
        <feComposite in="SourceGraphic" in2="blur" operator="over"/>
    </filter>
    
    <!-- Subtle texture -->
    <pattern id="texture" patternUnits="userSpaceOnUse" width="100" height="100">
        <rect width="100" height="100" fill="none"/>
        <path d="M0,0 L100,100 M100,0 L0,100" stroke="white" stroke-width="1" opacity="0.1"/>
    </pattern>
</defs>

<!-- Background glow -->
<g transform="translate(0.000000,487.000000) scale(0.100000,-0.100000)" filter="url(#glow)" opacity="0.7">
    <path d="M1967 4557 l-67 -112 714 -5 c393 -3 717 -8 721 -12 8 -8 -55 -119
-255 -448 -78 -129 -158 -261 -178 -293 -19 -31 -38 -59 -42 -62 -6 -4 -192
289 -325 513 l-66 112 -338 0 -338 0 -63 -107 c-35 -60 -101 -173 -148 -253
-46 -80 -121 -208 -165 -285 -74 -130 -149 -259 -317 -545 -37 -63 -100 -171
-140 -240 -40 -69 -106 -181 -148 -250 -76 -127 -151 -255 -350 -595 -60 -104
-147 -251 -191 -325 l-81 -135 357 -3 c303 -2 359 0 372 12 8 8 30 44 50 79
20 35 122 208 227 383 195 325 528 892 624 1064 29 52 105 183 168 290 104
175 214 371 267 472 11 21 23 34 26 30 4 -4 35 -56 70 -117 86 -153 248 -424
419 -705 46 -74 184 -304 308 -510 124 -206 241 -401 260 -432 34 -57 36 -58
81 -58 25 0 126 -3 224 -7 110 -4 177 -3 177 3 0 6 -25 50 -56 100 -32 49 -69
109 -84 134 -15 25 -51 83 -80 130 -29 47 -87 141 -129 210 -43 69 -121 197
-175 284 -54 87 -100 165 -103 171 -5 14 22 59 288 495 96 157 208 344 248
415 41 72 95 166 121 210 25 44 59 103 75 130 16 28 37 64 47 80 10 17 30 53
44 80 15 28 34 61 44 75 9 14 31 51 49 83 l32 57 -1053 0 -1053 -1 -68 -112z" 
fill="url(#multiGradient)"/>
</g>

<!-- Main text with multi-color gradient -->
<g transform="translate(0.000000,487.000000) scale(0.100000,-0.100000)" stroke="none">
    <path d="M1967 4557 l-67 -112 714 -5 c393 -3 717 -8 721 -12 8 -8 -55 -119
-255 -448 -78 -129 -158 -261 -178 -293 -19 -31 -38 -59 -42 -62 -6 -4 -192
289 -325 513 l-66 112 -338 0 -338 0 -63 -107 c-35 -60 -101 -173 -148 -253
-46 -80 -121 -208 -165 -285 -74 -130 -149 -259 -317 -545 -37 -63 -100 -171
-140 -240 -40 -69 -106 -181 -148 -250 -76 -127 -151 -255 -350 -595 -60 -104
-147 -251 -191 -325 l-81 -135 357 -3 c303 -2 359 0 372 12 8 8 30 44 50 79
20 35 122 208 227 383 195 325 528 892 624 1064 29 52 105 183 168 290 104
175 214 371 267 472 11 21 23 34 26 30 4 -4 35 -56 70 -117 86 -153 248 -424
419 -705 46 -74 184 -304 308 -510 124 -206 241 -401 260 -432 34 -57 36 -58
81 -58 25 0 126 -3 224 -7 110 -4 177 -3 177 3 0 6 -25 50 -56 100 -32 49 -69
109 -84 134 -15 25 -51 83 -80 130 -29 47 -87 141 -129 210 -43 69 -121 197
-175 284 -54 87 -100 165 -103 171 -5 14 22 59 288 495 96 157 208 344 248
415 41 72 95 166 121 210 25 44 59 103 75 130 16 28 37 64 47 80 10 17 30 53
44 80 15 28 34 61 44 75 9 14 31 51 49 83 l32 57 -1053 0 -1053 -1 -68 -112z" 
fill="url(#multiGradient)" stroke="#FFF" stroke-width="0.5"/>
    
    <path d="M2473 2923 c-28 -43 -94 -152 -148 -243 -54 -91 -150 -248 -213 -350
-64 -102 -157 -255 -208 -340 -50 -85 -135 -224 -188 -309 -53 -85 -96 -158
-96 -163 0 -4 556 -8 1235 -8 l1235 0 21 43 c12 23 48 86 81 140 32 54 62 105
65 113 4 12 -109 14 -858 15 -475 1 -877 4 -892 8 l-28 6 119 195 c66 107 151
246 191 309 39 63 71 121 71 129 0 9 -6 23 -14 31 -8 9 -72 108 -143 221 -71
113 -141 223 -155 243 l-25 38 -50 -78z" fill="url(#multiGradient)" stroke="#FFF" stroke-width="0.5"/>
    
    <path d="M280 745 l0 -615 135 0 135 0 2 417 3 418 27 -80 c49 -147 135 -389
174 -490 l39 -100 92 -3 91 -3 36 108 c20 59 73 209 118 331 l83 224 3 -411 2
-411 135 0 135 0 -2 613 -3 612 -182 3 -181 2 -25 -52 c-32 -68 -150 -377
-178 -465 -12 -37 -25 -71 -28 -75 -4 -4 -22 38 -40 95 -35 109 -140 384 -173
455 l-20 42 -189 0 -189 0 0 -615z" fill="url(#multiGradient)" stroke="#FFF" stroke-width="0.5"/>
    
    <path d="M1685 1352 c-6 -4 -11 -224 -12 -614 l-3 -608 390 0 390 0 0 120 0
120 -255 0 -255 0 0 125 0 125 210 0 210 0 0 125 0 125 -205 0 -205 0 0 125 0
125 238 0 237 0 -2 117 -2 118 -363 2 c-200 2 -367 -1 -373 -5z" fill="url(#multiGradient)" stroke="#FFF" stroke-width="0.5"/>
    
    <path d="M2530 1353 c0 -15 39 -218 54 -288 9 -38 29 -146 46 -240 16 -93 39
-217 50 -275 31 -166 70 -373 76 -397 4 -23 6 -23 178 -23 l173 0 46 173 c74
275 126 504 128 572 1 17 7 -8 14 -55 21 -145 87 -439 142 -632 l16 -58 173 0
173 0 10 52 c6 29 17 89 25 133 8 44 24 123 36 175 11 52 34 172 50 265 17 94
33 184 36 200 35 182 74 389 74 396 0 5 -60 9 -133 9 l-132 0 -58 -307 c-61
-325 -86 -485 -88 -568 l-2 -50 -7 40 c-4 22 -15 74 -24 115 -8 41 -40 194
-71 340 -30 146 -64 302 -76 348 l-21 82 -138 0 -137 0 -22 -97 c-25 -109 -59
-264 -66 -303 -2 -14 -23 -121 -45 -239 -22 -118 -40 -226 -40 -242 0 -15 -4
-31 -10 -34 -6 -4 -10 15 -10 49 0 80 -22 214 -86 532 -31 154 -59 291 -61
307 l-5 27 -134 0 c-74 0 -134 -3 -134 -7z" fill="url(#multiGradient)" stroke="#FFF" stroke-width="0.5"/>
</g>

<!-- Subtle texture overlay -->
<g transform="translate(0.000000,487.000000) scale(0.100000,-0.100000)" opacity="0.15">
    <path d="M1967 4557 l-67 -112 714 -5 c393 -3 717 -8 721 -12 8 -8 -55 -119
-255 -448 -78 -129 -158 -261 -178 -293 -19 -31 -38 -59 -42 -62 -6 -4 -192
289 -325 513 l-66 112 -338 0 -338 0 -63 -107 c-35 -60 -101 -173 -148 -253
-46 -80 -121 -208 -165 -285 -74 -130 -149 -259 -317 -545 -37 -63 -100 -171
-140 -240 -40 -69 -106 -181 -148 -250 -76 -127 -151 -255 -350 -595 -60 -104
-147 -251 -191 -325 l-81 -135 357 -3 c303 -2 359 0 372 12 8 8 30 44 50 79
20 35 122 208 227 383 195 325 528 892 624 1064 29 52 105 183 168 290 104
175 214 371 267 472 11 21 23 34 26 30 4 -4 35 -56 70 -117 86 -153 248 -424
419 -705 46 -74 184 -304 308 -510 124 -206 241 -401 260 -432 34 -57 36 -58
81 -58 25 0 126 -3 224 -7 110 -4 177 -3 177 3 0 6 -25 50 -56 100 -32 49 -69
109 -84 134 -15 25 -51 83 -80 130 -29 47 -87 141 -129 210 -43 69 -121 197
-175 284 -54 87 -100 165 -103 171 -5 14 22 59 288 495 96 157 208 344 248
415 41 72 95 166 121 210 25 44 59 103 75 130 16 28 37 64 47 80 10 17 30 53
44 80 15 28 34 61 44 75 9 14 31 51 49 83 l32 57 -1053 0 -1053 -1 -68 -112z" 
fill="url(#texture)"/>
</g>
</svg>